<svg height="512" viewBox="0 0 128 128" width="512" xmlns="http://www.w3.org/2000/svg"><g id="Circle_Grid" data-name="Circle Grid"><circle cx="64" cy="64" fill="#ef5261" r="64"/></g><g id="icon"><path d="m65 52.677h-2v-4a5.006 5.006 0 0 1 5-5h12.98a5.813 5.813 0 0 0 0-11.625h-32.306v-2h32.307a7.813 7.813 0 0 1 0 15.625h-12.981a3 3 0 0 0 -3 3z" fill="#dbd8dd"/><circle cx="64" cy="54.471" fill="#62667c" r="4.4"/><path d="m102.46 68.533c-4.915-12.867-15.319-20.846-23.238-17.821a9.573 9.573 0 0 0 -1.158.533 25.389 25.389 0 0 1 -12.064 3.492h-4a25.389 25.389 0 0 1 -12.068-3.492 9.573 9.573 0 0 0 -1.158-.533c-7.919-3.025-18.323 4.954-23.238 17.821s-2.481 25.751 5.438 28.775c6.743 2.576 15.276-2.843 20.7-12.449h24.648c5.424 9.606 13.957 15.025 20.7 12.449 7.919-3.024 10.353-15.908 5.438-28.775z" fill="#dbd8dd"/><circle cx="87.321" cy="70.608" fill="#62667c" r="10.203"/><g fill="#eeefee"><circle cx="87.321" cy="65.853" r="2.5"/><circle cx="82.432" cy="70.741" r="2.5"/><circle cx="92.209" cy="70.476" r="2.5"/><circle cx="87.321" cy="75.364" r="2.5"/></g><circle cx="40.679" cy="70.608" fill="#62667c" r="10.203"/><path d="m39.633 64.778h2.091v11.66h-2.091z" fill="#dbd8dd"/><path d="m39.633 64.778h2.091v11.66h-2.091z" fill="#dbd8dd" transform="matrix(0 1 -1 0 111.287 29.929)"/><path d="m72.209 68.469-4.595 2.841a.367.367 0 0 1 -.56-.312v-5.674a.367.367 0 0 1 .56-.312l4.594 2.833a.367.367 0 0 1 .001.624z" fill="#62667c"/><path d="m60.944 65.324v5.676a.367.367 0 0 1 -.56.312l-4.594-2.843a.367.367 0 0 1 0-.625l4.594-2.833a.367.367 0 0 1 .56.313z" fill="#62667c"/></g></svg>